<svg width="156" height="156" viewBox="0 0 156 156" fill="none" xmlns="http://www.w3.org/2000/svg">
<g clip-path="url(#clip0_293_1239)">
<path d="M77.5713 155.143C120.413 155.143 155.143 120.413 155.143 77.5713C155.143 34.7299 120.413 0 77.5713 0C34.7299 0 0 34.7299 0 77.5713C0 120.413 34.7299 155.143 77.5713 155.143Z" fill="black"/>
<path fill-rule="evenodd" clip-rule="evenodd" d="M88.5126 61.195L61.756 87.7221C61.4108 87.0584 61.0996 86.3668 60.8204 85.6497C59.886 83.2393 59.4188 80.6821 59.4188 77.9814C59.4188 75.2783 59.886 72.722 60.8204 70.3119C61.756 67.9006 63.0517 65.8087 64.7084 64.033C66.3652 62.2586 68.3564 60.8551 70.6805 59.8215C73.0059 58.789 75.5571 58.2722 78.3354 58.2722C81.1149 58.2722 83.6804 58.8019 86.0305 59.8623C86.9042 60.2558 87.7316 60.6997 88.5126 61.195ZM86.1515 96.2985C83.8264 97.3321 81.2749 97.8479 78.4966 97.8479C75.7171 97.8479 73.1519 97.3183 70.8006 96.2589C69.9278 95.8643 69.1005 95.4205 68.3208 94.924L95.0763 68.3992C95.4212 69.0617 95.7327 69.7521 96.0116 70.4704C96.946 72.8808 97.4135 75.438 97.4135 78.1399C97.4135 80.8418 96.946 83.3981 96.0116 85.8094C95.0763 88.2195 93.7806 90.3114 92.1236 92.086C90.4668 93.8605 88.4768 95.2649 86.1515 96.2985ZM90.1998 104.523C93.7806 102.987 96.8801 100.908 99.4984 98.2841C102.117 95.6627 104.147 92.6026 105.59 89.1063C107.033 85.6101 107.755 81.9013 107.755 77.9814C107.755 74.0603 107.033 70.3515 105.59 66.8541C104.734 64.7806 103.681 62.8655 102.43 61.1082L119.833 43.8556L112.918 37L95.4623 54.3052C93.8952 53.2458 92.1939 52.3302 90.3598 51.5571C86.7789 50.0475 82.8249 49.2916 78.4966 49.2916C74.1674 49.2916 70.2133 50.0604 66.6325 51.5968C63.0517 53.1333 59.9519 55.2122 57.3336 57.8348C54.7152 60.4574 52.6841 63.5175 51.2414 67.0138C49.7988 70.5103 49.0773 74.2189 49.0773 78.1399C49.0773 82.0598 49.7988 85.7674 51.2414 89.2652C52.098 91.3398 53.1513 93.2545 54.4016 95.013L37 112.264L43.9152 119.119L61.3698 101.815C62.9368 102.874 64.6382 103.79 66.4723 104.563C70.0534 106.073 74.0074 106.828 78.3354 106.828C82.6647 106.828 86.6187 106.059 90.1998 104.523Z" fill="white"/>
</g>
<defs>
<clipPath id="clip0_293_1239">
<rect width="156" height="156" fill="white"/>
</clipPath>
</defs>
</svg>
